<?xml version="1.0" encoding="UTF-8" standalone="no"?>
<svg version="1.1" preserveAspectRatio="xMidYMid meet" xmlns="http://www.w3.org/2000/svg" xmlns:xlink="http://www.w3.org/1999/xlink" viewBox="0 0 1000 1000" width="1000" height="1000">
	<defs>
		<path d="M212.744,406.665 C236.255,334.304,423.915,197.961,500.000,197.961 S763.745,334.304,787.256,406.665 S739.088,699.633,677.534,744.355 S384.020,789.076,322.466,744.355 S189.233,479.026,212.744,406.665 Z" stroke-linecap="round" stroke-linejoin="round" stroke-miterlimit="25" id="def-f2d9e0ac-398e-4fab-8830-667633027052"></path>
		<g transform="matrix(1.380, 0.000, 0.000, 1.380, 437.324, 348.886)" fill="#000" stroke="none" stroke-width="1" id="def-8ffa35eb-3f19-43ff-b9fe-c0659ec7e8af">
			<g transform="translate(-4.587249999999997, -5.871999999999986)">
				<path d=" M94.237,11.583 l-2.376 -2.376 c0,0,0 -0.001 -0.001 -0.001 c-0.001,0 -0.001 -0.001 -0.002 -0.001 l-2.375 -2.376 c-0.598 -0.597 -1.565 -0.597 -2.162,0 c-0.598,0.597 -0.598,1.564,0,2.162 l1.297,1.297 L75.985,22.918 c-0.783 -0.428 -1.665 -0.657 -2.583 -0.657 c-0.027,0 -0.055,0.004 -0.081,0.004 c0.02 -1.409 -0.504 -2.826 -1.576 -3.899 c-1.02 -1.021 -2.376 -1.582 -3.818 -1.582 s-2.798,0.561 -3.819,1.582 l-0.982,0.983 v-1.39 c0 -2.978 -2.422 -5.401 -5.401 -5.401 c-1.518,0 -2.89,0.632 -3.871,1.645 c-0.981 -1.012 -2.354 -1.645 -3.873 -1.645 c-1.519,0 -2.89,0.632 -3.872,1.645 c-0.982 -1.012 -2.354 -1.645 -3.873 -1.645 c-2.978,0 -5.4,2.423 -5.4,5.401 v1.389 l-0.982 -0.982 c-1.021 -1.02 -2.376 -1.582 -3.82 -1.582 c-1.442,0 -2.798,0.562 -3.818,1.582 c-1.02,1.02 -1.583,2.377 -1.583,3.819 c0,0.027,0.003,0.053,0.004,0.08 c-0.026,0 -0.053 -0.004 -0.079 -0.004 c-0.962,0 -1.883,0.255 -2.695,0.724 L11.155,10.277 l1.297 -1.296 c0.597 -0.597,0.597 -1.565,0 -2.162 c-0.597 -0.596 -1.565 -0.596 -2.162,0 L7.999,9.11 C7.967,9.137,7.933,9.159,7.904,9.188 C7.875,9.217,7.853,9.251,7.827,9.283 l-2.292,2.292 c-0.597,0.597 -0.597,1.565,0,2.162 c0.298,0.299,0.689,0.448,1.081,0.448 c0.391,0,0.782 -0.149,1.08 -0.448 l1.298 -1.297 l12.759,12.76 c-0.387,0.753 -0.595,1.592 -0.595,2.464 c0,0.027,0.003,0.055,0.004,0.082 c-1.41 -0.02 -2.826,0.502 -3.898,1.575 c-2.106,2.106 -2.106,5.532,0,7.639 l0.982,0.982 h-1.389 c-2.979,0 -5.401,2.423 -5.401,5.401 c0,1.519,0.632,2.89,1.644,3.873 c-1.012,0.982 -1.644,2.353 -1.644,3.873 c0,1.518,0.632,2.89,1.644,3.871 c-1.012,0.981 -1.644,2.354 -1.644,3.873 c0,2.978,2.422,5.399,5.401,5.399 h1.389 l-0.983,0.983 c-1.02,1.02 -1.582,2.376 -1.582,3.819 c0,1.442,0.562,2.799,1.582,3.817 c1.02,1.021,2.377,1.583,3.819,1.583 c0.028,0,0.054 -0.004,0.082 -0.005 c-0.013,0.916,0.204,1.835,0.653,2.661 l-13.93,13.93 c-0.597,0.596 -0.597,1.564,0,2.161 c0.298,0.299,0.689,0.447,1.081,0.447 s0.782 -0.148,1.08 -0.447 l13.929 -13.928 c0.783,0.428,1.665,0.656,2.582,0.656 c0,0,0,0,0,0 c0.027,0,0.054 -0.003,0.082 -0.003 c-0.021,1.409,0.502,2.825,1.575,3.897 c1.021,1.021,2.377,1.582,3.819,1.582 l0,0 c1.443,0,2.799 -0.562,3.819 -1.582 l0.982 -0.982 v1.39 c0,2.979,2.423,5.4,5.4,5.4 c1.519,0,2.89 -0.633,3.873 -1.645 c0.982,1.012,2.354,1.645,3.872,1.645 c1.519,0,2.891 -0.633,3.873 -1.645 c0.981,1.012,2.354,1.645,3.871,1.645 c2.979,0,5.401 -2.423,5.401 -5.4 v-1.39 l0.983,0.982 c1.021,1.021,2.377,1.583,3.818,1.582 c1.442,0,2.799 -0.562,3.818 -1.582 c1.021 -1.02,1.583 -2.377,1.583 -3.818 c0 -0.027 -0.004 -0.053 -0.004 -0.079 c0.026,0,0.053,0.003,0.079,0.003 c0.873,0,1.711 -0.208,2.464 -0.595 L89.734,93.18 c0.298,0.299,0.689,0.448,1.08,0.448 c0.392,0,0.782 -0.149,1.081 -0.447 c0.597 -0.598,0.597 -1.565,0 -2.162 L78.079,77.203 c0.471 -0.813,0.724 -1.733,0.724 -2.695 c0 -0.027 -0.003 -0.055 -0.003 -0.082 c0.026,0.001,0.053,0.004,0.08,0.004 c1.381,0,2.765 -0.526,3.818 -1.58 c2.105 -2.105,2.105 -5.531,0 -7.637 l-0.982 -0.983 h1.389 c2.979,0,5.401 -2.422,5.401 -5.399 c0 -1.52 -0.633 -2.892 -1.645 -3.873 c1.012 -0.981,1.645 -2.354,1.645 -3.871 c0 -1.519 -0.633 -2.891 -1.645 -3.873 c1.012 -0.982,1.645 -2.354,1.645 -3.873 c0 -2.978 -2.424 -5.401 -5.401 -5.401 h-1.389 l0.981 -0.982 c2.106 -2.106,2.106 -5.532,0 -7.638 c-1.02 -1.02 -2.376 -1.582 -3.818 -1.582 c-0.027,0 -0.055,0.003 -0.082,0.004 c0.014 -0.916 -0.204 -1.833 -0.652 -2.659 l12.635 -12.635 l1.298,1.297 c0.298,0.298,0.688,0.448,1.081,0.448 c0.391,0,0.781 -0.15,1.079 -0.448 C94.836,13.148,94.836,12.18,94.237,11.583 z M57.724,15.617 c1.293,0,2.345,1.051,2.345,2.344 v4.447 l-4.688,4.688 V17.96 C55.381,16.668,56.433,15.617,57.724,15.617 z M49.98,15.617 c1.292,0,2.344,1.051,2.344,2.344 v12.191 l-4.688,4.688 V17.96 C47.636,16.668,48.688,15.617,49.98,15.617 z M39.893,17.96 c0 -1.292,1.051 -2.344,2.343 -2.344 c1.292,0,2.344,1.051,2.344,2.344 v19.936 l-4.687,4.688 V17.96 z M29.69,22.186 c0 -0.626,0.244 -1.214,0.687 -1.657 c0.442 -0.443,1.031 -0.686,1.656 -0.686 c0.626,0,1.215,0.244,1.658,0.687 l3.144,3.144 v6.629 l-6.458 -6.458 C29.934,23.401,29.69,22.813,29.69,22.186 z M24.213,27.663 c0 -0.626,0.245 -1.215,0.687 -1.658 c0.442 -0.442,1.031 -0.687,1.657 -0.686 c0.626,0,1.215,0.244,1.658,0.686 l8.353,8.354 c0.082,0.082,0.172,0.15,0.267,0.209 v3.372 h-3.314 l-8.62 -8.62 C24.458,28.877,24.213,28.289,24.213,27.663 z M19.425,34.796 c-0.914 -0.914 -0.915 -2.401,0 -3.315 c0.914 -0.914,2.4 -0.914,3.315,0 l6.458,6.458 h-6.629 L19.425,34.796 z M14.511,43.341 c0 -1.292,1.052 -2.344,2.345 -2.344 h19.979 v4.643 l-0.044,0.044 H16.856 C15.563,45.685,14.511,44.633,14.511,43.341 z M14.511,51.086 c0 -1.293,1.052 -2.345,2.345 -2.345 h16.878 l-4.688,4.687 h-12.19 C15.563,53.428,14.511,52.377,14.511,51.086 z M16.856,61.174 c-1.293,0 -2.345 -1.052 -2.345 -2.344 c0 -1.293,1.052 -2.345,2.345 -2.345 h9.133 l-4.688,4.688 H16.856 z M21.081,71.375 c-0.626,0 -1.215 -0.243 -1.657 -0.686 c-0.914 -0.914 -0.914 -2.401,0 -3.315 l20.02 -20.02 c0.001 -0.001,0.001 -0.001,0.001 -0.001 L66.27,20.529 c0.442 -0.443,1.031 -0.687,1.657 -0.687 s1.214,0.244,1.657,0.687 c0.914,0.914,0.914,2.401,0,3.315 L22.738,70.689 C22.295,71.132,21.708,71.375,21.081,71.375 z M42.235,86.554 c-1.292,0 -2.343 -1.051 -2.343 -2.344 v-4.447 l4.687 -4.688 v4.517 v4.618 C44.579,85.503,43.528,86.554,42.235,86.554 z M49.98,86.554 c-1.292,0 -2.344 -1.051 -2.344 -2.344 v-4.618 v-7.573 l4.688 -4.687 v12.26 v4.618 C52.324,85.503,51.272,86.554,49.98,86.554 z M60.068,84.21 c0,1.293 -1.052,2.344 -2.345,2.344 c-1.291,0 -2.343 -1.051 -2.343 -2.344 v-4.618 V64.274 l4.688 -4.688 V84.21 z M69.584,81.641 c-0.443,0.443 -1.031,0.688 -1.657,0.688 s-1.215 -0.244 -1.657 -0.688 l-2.976 -2.974 l-0.169,0.169 v-6.968 l3.193,3.192 c0,0,0,0,0,0.001 l3.266,3.266 c0.006,0.006,0.012,0.012,0.018,0.018 c0.432,0.439,0.669,1.021,0.669,1.639 C70.271,80.61,70.027,81.198,69.584,81.641 z M75.748,74.507 c0,0.627 -0.245,1.216 -0.688,1.658 c-0.443,0.442 -1.031,0.687 -1.657,0.687 c-0.626,0.001 -1.215 -0.244 -1.656 -0.687 c-0.008 -0.007 -0.016 -0.014 -0.022 -0.021 L68.48,72.9 c0,0 -0.001 -0.001 -0.001 -0.002 l-5.354 -5.354 v-3.315 h3.315 l8.62,8.621 C75.503,73.294,75.748,73.882,75.748,74.507 z M80.536,67.374 c0.914,0.914,0.914,2.401,0,3.315 c-0.913,0.913 -2.4,0.913 -3.314,0 l-1.633 -1.633 l-1.632 -1.633 l0,0 l-3.194 -3.194 h6.63 L80.536,67.374 z M85.448,58.83 c0,1.292 -1.051,2.344 -2.344,2.344 H63.125 v-4.645 l0.044 -0.044 h15.317 h4.618 C84.397,56.485,85.448,57.537,85.448,58.83 z M85.448,51.086 c0,1.291 -1.051,2.342 -2.344,2.342 h-4.618 h-12.26 l4.688 -4.687 h7.572 h4.618 C84.397,48.741,85.448,49.793,85.448,51.086 z M83.104,40.997 c1.293,0,2.344,1.052,2.344,2.344 s-1.051,2.344 -2.344,2.344 h-4.618 H73.97 l4.688 -4.688 H83.104 z M78.879,30.795 c0.627,0,1.214,0.244,1.657,0.687 c0.442,0.443,0.687,1.031,0.687,1.657 s-0.244,1.215 -0.687,1.658 L52.772,62.56 c-0.001,0 -0.001,0.001 -0.001,0.001 l-19.081,19.08 c-0.443,0.443 -1.032,0.688 -1.658,0.688 s-1.215 -0.244 -1.657 -0.688 c-0.914 -0.913 -0.915 -2.4,0 -3.313 l46.846 -46.846 C77.664,31.038,78.253,30.795,78.879,30.795 z M75.061,29.319 L28.214,76.165 c-0.442,0.442 -1.031,0.687 -1.657,0.687 s-1.214 -0.244 -1.657 -0.687 c-0.913 -0.913 -0.914 -2.4 -0.001 -3.313 c0 -0.001,0 -0.001,0.001 -0.002 l46.846 -46.845 c0.441 -0.442,1.031 -0.687,1.656 -0.687 c0.627,0,1.215,0.244,1.658,0.687 C75.973,26.918,75.974,28.405,75.061,29.319 L75.061,29.319 z"></path>
			</g>
		</g>
		<path d="M389.560,537.659 L396.028,510.089 Q392.794,509.604,389.237,507.745 L389.237,507.745 L389.237,504.672 L409.611,504.672 L409.611,507.745 Q408.236,508.634,406.700,509.200 Q405.164,509.766,403.709,510.089 L403.709,510.089 L389.398,561.267 L380.990,562.237 L368.458,523.106 L356.250,561.267 L347.761,562.237 L331.995,510.089 Q330.297,509.766,328.842,509.160 Q327.387,508.553,326.093,507.745 L326.093,507.745 L326.093,504.672 L352.288,504.672 L352.288,507.745 Q350.914,508.472,349.176,509.079 Q347.438,509.685,345.578,510.089 L345.578,510.089 L353.097,538.629 L354.795,549.139 L354.956,549.139 L357.786,538.225 L368.539,504.672 L373.309,504.672 L384.790,537.821 L387.539,548.331 L387.700,548.331 L389.560,537.659 Z M422.466,532.970 L422.466,532.970 Q422.466,526.663,424.244,521.287 Q426.023,515.910,429.499,511.989 Q432.976,508.068,438.069,505.885 Q443.163,503.702,449.793,503.702 L449.793,503.702 Q456.422,503.702,461.516,505.885 Q466.609,508.068,470.045,511.989 Q473.481,515.910,475.260,521.287 Q477.039,526.663,477.039,532.970 L477.039,532.970 Q477.039,539.276,475.260,544.652 Q473.481,550.029,470.045,553.950 Q466.609,557.871,461.516,560.054 Q456.422,562.237,449.793,562.237 L449.793,562.237 Q443.163,562.237,438.069,560.054 Q432.976,557.871,429.499,553.950 Q426.023,550.029,424.244,544.652 Q422.466,539.276,422.466,532.970 Z M436.210,532.970 L436.210,532.970 Q436.210,538.144,437.018,542.550 Q437.827,546.957,439.565,550.150 Q441.303,553.344,444.012,555.163 Q446.720,556.982,450.520,556.982 L450.520,556.982 Q453.997,556.982,456.422,555.163 Q458.848,553.344,460.384,550.150 Q461.920,546.957,462.607,542.550 Q463.294,538.144,463.294,532.970 L463.294,532.970 Q463.294,527.795,462.526,523.389 Q461.758,518.983,460.101,515.789 Q458.443,512.596,455.735,510.777 Q453.027,508.957,449.146,508.957 L449.146,508.957 Q445.427,508.957,442.920,510.777 Q440.414,512.596,438.918,515.789 Q437.423,518.983,436.816,523.389 Q436.210,527.795,436.210,532.970 Z M493.128,532.970 L493.128,532.970 Q493.128,526.663,494.906,521.287 Q496.685,515.910,500.162,511.989 Q503.638,508.068,508.732,505.885 Q513.825,503.702,520.455,503.702 L520.455,503.702 Q527.084,503.702,532.178,505.885 Q537.271,508.068,540.708,511.989 Q544.144,515.910,545.922,521.287 Q547.701,526.663,547.701,532.970 L547.701,532.970 Q547.701,539.276,545.922,544.652 Q544.144,550.029,540.708,553.950 Q537.271,557.871,532.178,560.054 Q527.084,562.237,520.455,562.237 L520.455,562.237 Q513.825,562.237,508.732,560.054 Q503.638,557.871,500.162,553.950 Q496.685,550.029,494.906,544.652 Q493.128,539.276,493.128,532.970 Z M506.872,532.970 L506.872,532.970 Q506.872,538.144,507.681,542.550 Q508.489,546.957,510.227,550.150 Q511.966,553.344,514.674,555.163 Q517.383,556.982,521.182,556.982 L521.182,556.982 Q524.659,556.982,527.084,555.163 Q529.510,553.344,531.046,550.150 Q532.582,546.957,533.269,542.550 Q533.957,538.144,533.957,532.970 L533.957,532.970 Q533.957,527.795,533.189,523.389 Q532.421,518.983,530.763,515.789 Q529.106,512.596,526.397,510.777 Q523.689,508.957,519.808,508.957 L519.808,508.957 Q516.089,508.957,513.583,510.777 Q511.076,512.596,509.581,515.789 Q508.085,518.983,507.479,523.389 Q506.872,527.795,506.872,532.970 Z M562.254,507.745 L562.254,504.672 L588.772,504.672 L588.772,507.745 Q587.075,508.634,585.013,509.240 Q582.951,509.847,581.011,510.089 L581.011,510.089 L581.011,556.012 L596.615,556.012 L602.032,541.540 L605.346,541.540 Q605.670,543.399,605.953,545.905 Q606.236,548.412,606.398,551.161 Q606.559,553.910,606.640,556.578 Q606.721,559.246,606.640,561.267 L606.640,561.267 L562.254,561.267 L562.254,558.195 Q564.113,557.224,565.771,556.658 Q567.428,556.092,568.883,555.850 L568.883,555.850 L568.883,510.089 Q564.922,509.442,562.254,507.745 L562.254,507.745 Z M654.099,507.745 L654.099,504.672 L673.907,504.672 L673.907,507.745 Q672.694,508.472,671.198,509.160 Q669.702,509.847,668.166,510.089 L668.166,510.089 L652.482,537.578 L652.482,555.850 Q654.099,556.012,655.675,556.699 Q657.252,557.386,658.626,558.195 L658.626,558.195 L658.626,561.267 L633.725,561.267 L633.725,558.195 Q635.099,557.467,636.797,556.820 Q638.495,556.173,640.354,555.850 L640.354,555.850 L640.354,537.659 L624.023,510.089 Q622.163,509.766,620.506,509.119 Q618.848,508.472,617.474,507.745 L617.474,507.745 L617.474,504.672 L643.992,504.672 L643.992,507.745 Q642.861,508.391,641.405,509.038 Q639.950,509.685,638.010,510.089 L638.010,510.089 L649.571,531.757 L660.567,510.089 Q658.707,509.685,657.009,509.038 Q655.311,508.391,654.099,507.745 L654.099,507.745 Z M372.998,597.671 L377.778,577.296 Q375.388,576.937,372.759,575.563 L372.759,575.563 L372.759,573.292 L387.817,573.292 L387.817,575.563 Q386.801,576.220,385.666,576.638 Q384.530,577.057,383.455,577.296 L383.455,577.296 L372.879,615.118 L366.665,615.835 L357.403,586.916 L348.381,615.118 L342.107,615.835 L330.455,577.296 Q329.200,577.057,328.125,576.609 Q327.049,576.160,326.093,575.563 L326.093,575.563 L326.093,573.292 L345.453,573.292 L345.453,575.563 Q344.437,576.101,343.152,576.549 Q341.868,576.997,340.493,577.296 L340.493,577.296 L346.050,598.388 L347.305,606.156 L347.425,606.156 L349.516,598.089 L357.463,573.292 L360.988,573.292 L369.473,597.790 L371.504,605.558 L371.624,605.558 L372.998,597.671 Z M397.317,594.205 L397.317,594.205 Q397.317,589.545,398.632,585.571 Q399.946,581.598,402.515,578.700 Q405.085,575.802,408.849,574.189 Q412.613,572.575,417.513,572.575 L417.513,572.575 Q422.413,572.575,426.177,574.189 Q429.941,575.802,432.481,578.700 Q435.020,581.598,436.335,585.571 Q437.649,589.545,437.649,594.205 L437.649,594.205 Q437.649,598.866,436.335,602.839 Q435.020,606.813,432.481,609.711 Q429.941,612.609,426.177,614.222 Q422.413,615.835,417.513,615.835 L417.513,615.835 Q412.613,615.835,408.849,614.222 Q405.085,612.609,402.515,609.711 Q399.946,606.813,398.632,602.839 Q397.317,598.866,397.317,594.205 Z M407.475,594.205 L407.475,594.205 Q407.475,598.030,408.072,601.286 Q408.670,604.542,409.955,606.903 Q411.239,609.263,413.241,610.607 Q415.243,611.952,418.051,611.952 L418.051,611.952 Q420.620,611.952,422.413,610.607 Q424.205,609.263,425.341,606.903 Q426.476,604.542,426.984,601.286 Q427.492,598.030,427.492,594.205 L427.492,594.205 Q427.492,590.381,426.924,587.125 Q426.356,583.868,425.131,581.508 Q423.906,579.148,421.905,577.804 Q419.903,576.459,417.035,576.459 L417.035,576.459 Q414.286,576.459,412.434,577.804 Q410.582,579.148,409.476,581.508 Q408.371,583.868,407.923,587.125 Q407.475,590.381,407.475,594.205 Z M476.488,575.563 L476.488,573.292 L491.306,573.292 L491.306,575.563 Q490.171,576.459,488.797,577.146 Q487.422,577.834,486.227,578.192 L486.227,578.192 L486.227,615.835 L481.148,615.835 L460.056,585.362 L457.666,580.761 L457.487,580.761 L458.025,585.541 L458.025,610.458 Q459.220,610.757,460.683,611.444 Q462.147,612.131,463.163,612.848 L463.163,612.848 L463.163,615.118 L448.405,615.118 L448.405,612.848 Q449.480,612.131,450.765,611.503 Q452.049,610.876,453.424,610.458 L453.424,610.458 L453.424,577.834 Q452.229,577.355,451.034,576.758 Q449.839,576.160,448.883,575.503 L448.883,575.503 L448.883,573.292 L461.789,573.292 L478.938,598.149 L481.686,603.288 L481.925,603.288 L481.626,598.149 L481.626,578.192 Q480.192,577.714,478.848,577.027 Q477.504,576.340,476.488,575.563 L476.488,575.563 Z M507.439,615.118 L500.866,615.118 L500.866,612.848 Q501.882,612.250,503.137,611.802 Q504.392,611.354,505.766,611.115 L505.766,611.115 L505.766,577.296 Q504.392,576.997,503.107,576.549 Q501.822,576.101,500.866,575.563 L500.866,575.563 L500.866,573.292 L507.798,573.292 Q508.813,573.292,510.307,573.233 Q511.801,573.173,513.414,573.083 Q515.027,572.994,516.551,572.904 Q518.075,572.814,519.150,572.814 L519.150,572.814 Q524.349,572.814,528.442,574.189 Q532.535,575.563,535.373,578.192 Q538.211,580.821,539.735,584.705 Q541.258,588.589,541.258,593.668 L541.258,593.668 Q541.258,598.627,539.824,602.690 Q538.390,606.753,535.522,609.621 Q532.654,612.489,528.262,614.073 Q523.871,615.656,517.955,615.656 L517.955,615.656 Q517.179,615.656,515.864,615.567 Q514.549,615.477,513.056,615.387 Q511.562,615.298,510.068,615.208 Q508.574,615.118,507.439,615.118 L507.439,615.118 Z M518.374,576.698 L518.374,576.698 Q517.298,576.698,516.222,576.758 Q515.147,576.818,514.370,576.937 L514.370,576.937 L514.370,611.533 Q514.609,611.593,515.207,611.623 Q515.804,611.653,516.432,611.683 Q517.059,611.713,517.657,611.742 Q518.254,611.772,518.553,611.772 L518.553,611.772 Q522.018,611.772,524.438,610.338 Q526.858,608.904,528.412,606.454 Q529.965,604.005,530.682,600.718 Q531.399,597.432,531.399,593.727 L531.399,593.727 Q531.399,590.441,530.652,587.394 Q529.906,584.346,528.352,581.956 Q526.799,579.566,524.319,578.132 Q521.839,576.698,518.374,576.698 Z M552.014,573.292 L583.443,573.292 Q583.323,575.981,583.025,578.849 Q582.726,581.717,582.248,584.227 L582.248,584.227 L579.798,584.227 L577.049,577.176 L565.876,577.176 L565.876,591.815 L573.166,591.815 L575.795,587.214 L577.707,587.214 Q578.006,590.142,578.006,593.727 Q578.006,597.312,577.707,600.420 L577.707,600.420 L575.795,600.420 L573.166,595.699 L565.876,595.699 L565.876,611.235 L577.528,611.235 L580.694,603.646 L583.144,603.646 Q583.383,604.781,583.622,606.215 Q583.861,607.649,584.011,609.173 Q584.160,610.697,584.250,612.250 Q584.339,613.804,584.339,615.118 L584.339,615.118 L552.014,615.118 L552.014,612.848 Q553.029,612.310,554.284,611.832 Q555.539,611.354,556.913,611.115 L556.913,611.115 L556.913,577.296 Q555.718,577.057,554.374,576.609 Q553.029,576.160,552.014,575.563 L552.014,575.563 L552.014,573.292 Z M609.136,597.014 L609.136,611.115 Q610.510,611.414,611.586,611.892 Q612.661,612.370,613.677,612.848 L613.677,612.848 L613.677,615.118 L595.274,615.118 L595.274,612.848 Q596.588,612.131,597.783,611.742 Q598.978,611.354,600.173,611.115 L600.173,611.115 L600.173,577.296 Q597.186,576.638,595.274,575.563 L595.274,575.563 L595.274,573.292 L601.607,573.292 Q602.802,573.292,604.326,573.233 Q605.850,573.173,607.523,573.083 Q609.196,572.994,610.929,572.904 Q612.661,572.814,614.275,572.814 L614.275,572.814 Q617.561,572.814,620.339,573.561 Q623.118,574.308,625.120,575.802 Q627.121,577.296,628.227,579.536 Q629.332,581.777,629.332,584.765 L629.332,584.765 Q629.332,589.067,627.241,591.815 Q625.149,594.564,621.505,595.938 L621.505,595.938 Q623.895,599.703,626.583,603.616 Q629.272,607.530,632.260,611.175 L632.260,611.175 L635.128,613.087 L635.128,615.118 L625.149,615.118 L622.580,613.147 Q619.832,609.860,617.710,605.528 Q615.589,601.196,613.976,597.014 L613.976,597.014 L609.136,597.014 Z M612.124,576.698 L612.124,576.698 Q610.271,576.698,609.136,577.057 L609.136,577.057 L609.136,593.727 L612.661,593.727 Q615.709,593.727,617.860,591.546 Q620.011,589.366,620.011,585.063 L620.011,585.063 Q620.011,582.853,619.413,581.269 Q618.816,579.686,617.740,578.670 Q616.665,577.654,615.231,577.176 Q613.797,576.698,612.124,576.698 Z M649.827,601.376 L652.277,610.159 Q652.934,610.816,654.129,611.384 Q655.324,611.952,657.296,611.952 L657.296,611.952 Q660.582,611.952,662.763,610.249 Q664.944,608.546,664.944,605.498 L664.944,605.498 Q664.944,603.288,663.540,601.794 Q662.136,600.300,659.985,599.045 Q657.833,597.790,655.384,596.566 Q652.934,595.341,650.783,593.668 Q648.632,591.995,647.228,589.694 Q645.823,587.394,645.823,583.988 L645.823,583.988 Q645.823,581.060,646.899,578.909 Q647.974,576.758,649.857,575.354 Q651.739,573.950,654.308,573.263 Q656.877,572.575,659.865,572.575 L659.865,572.575 Q663.510,572.575,666.647,573.083 Q669.784,573.591,672.293,574.667 L672.293,574.667 Q672.234,575.862,672.084,577.415 Q671.935,578.969,671.696,580.492 Q671.457,582.016,671.188,583.361 Q670.919,584.705,670.680,585.601 L670.680,585.601 L668.230,585.601 L665.482,577.415 Q664.765,577.057,663.360,576.758 Q661.956,576.459,660.463,576.459 L660.463,576.459 Q657.953,576.459,656.220,577.774 Q654.487,579.088,654.487,581.598 L654.487,581.598 Q654.487,583.868,655.921,585.452 Q657.355,587.035,659.507,588.350 Q661.658,589.664,664.197,590.949 Q666.736,592.234,668.888,593.907 Q671.039,595.580,672.473,597.820 Q673.907,600.061,673.907,603.347 L673.907,603.347 Q673.907,609.323,669.873,612.579 Q665.840,615.835,658.013,615.835 L658.013,615.835 Q656.101,615.835,654.159,615.596 Q652.217,615.357,650.484,614.939 Q648.751,614.521,647.407,614.043 Q646.062,613.565,645.405,613.027 L645.405,613.027 Q645.465,611.653,645.704,610.069 Q645.943,608.486,646.212,606.903 Q646.481,605.319,646.779,603.885 Q647.078,602.451,647.377,601.376 L647.377,601.376 L649.827,601.376 Z" fill="#000" id="def-615eb3de-5220-41ea-9642-c50970156407"></path>
		<path d="M393.632,635.817 Q393.777,635.817,393.838,635.900 Q393.900,635.982,393.859,636.106 L393.859,636.106 L389.592,650.846 Q389.530,651.114,389.200,651.114 L389.200,651.114 L388.190,651.114 Q387.819,651.114,387.757,650.867 L387.757,650.867 L384.273,638.497 Q384.252,638.394,384.221,638.394 Q384.190,638.394,384.170,638.497 L384.170,638.497 L380.624,650.846 Q380.542,651.114,380.232,651.114 L380.232,651.114 L379.202,651.114 Q378.831,651.114,378.769,650.867 L378.769,650.867 L374.584,636.127 Q374.584,636.106,374.573,636.085 Q374.563,636.065,374.584,636.044 L374.584,636.044 Q374.584,635.817,374.831,635.817 L374.831,635.817 L375.821,635.817 Q375.965,635.817,376.027,635.859 Q376.089,635.900,376.130,636.024 L376.130,636.024 L379.676,648.723 Q379.738,648.929,379.799,648.929 L379.799,648.929 Q379.861,648.929,379.923,648.702 L379.923,648.702 L383.531,636.003 Q383.634,635.817,383.861,635.817 L383.861,635.817 L384.768,635.817 Q384.912,635.817,384.974,635.859 Q385.036,635.900,385.077,636.024 L385.077,636.024 L388.643,648.743 Q388.705,648.929,388.767,648.929 L388.767,648.929 Q388.829,648.929,388.891,648.743 L388.891,648.743 L392.498,636.003 Q392.540,635.817,392.808,635.817 L392.808,635.817 L393.632,635.817 Z M397.281,651.114 Q397.178,651.114,397.127,651.042 Q397.075,650.970,397.116,650.825 L397.116,650.825 L402.497,636.085 Q402.559,635.941,402.641,635.879 Q402.724,635.817,402.868,635.817 L402.868,635.817 L404.105,635.817 Q404.455,635.817,404.538,636.085 L404.538,636.085 L409.856,650.825 Q409.877,650.867,409.877,650.928 L409.877,650.928 Q409.877,651.114,409.692,651.114 L409.692,651.114 L408.620,651.114 Q408.372,651.114,408.310,650.928 L408.310,650.928 L406.785,646.682 Q406.723,646.517,406.558,646.517 L406.558,646.517 L400.291,646.517 Q400.126,646.517,400.064,646.682 L400.064,646.682 L398.497,650.949 Q398.456,651.114,398.229,651.114 L398.229,651.114 L397.281,651.114 Z M400.703,645.259 L406.104,645.259 Q406.311,645.259,406.249,645.032 L406.249,645.032 L403.589,637.714 Q403.528,637.528,403.445,637.528 L403.445,637.528 Q403.363,637.528,403.280,637.735 L403.280,637.735 L400.580,645.053 Q400.538,645.135,400.538,645.177 L400.538,645.177 Q400.538,645.259,400.703,645.259 L400.703,645.259 Z M424.802,650.763 Q424.823,650.805,424.823,650.867 L424.823,650.867 Q424.823,650.970,424.761,651.042 Q424.699,651.114,424.596,651.114 L424.596,651.114 L423.463,651.114 Q423.277,651.114,423.174,650.887 L423.174,650.887 L420.391,644.228 Q420.350,644.105,420.247,644.053 Q420.143,644.002,419.937,644.002 L419.937,644.002 L416.041,644.002 Q415.794,644.002,415.794,644.228 L415.794,644.228 L415.794,650.825 Q415.794,650.990,415.732,651.052 Q415.670,651.114,415.526,651.114 L415.526,651.114 L414.515,651.114 Q414.247,651.114,414.247,650.867 L414.247,650.867 L414.247,636.065 Q414.247,635.920,414.299,635.869 Q414.351,635.817,414.474,635.817 L414.474,635.817 L420.040,635.817 Q422.411,635.817,423.700,636.817 Q424.988,637.817,424.988,639.714 L424.988,639.714 Q424.988,641.384,424.102,642.352 Q423.215,643.321,421.937,643.692 L421.937,643.692 Q421.813,643.713,421.855,643.878 L421.855,643.878 L424.802,650.763 Z M419.401,642.806 Q421.422,642.806,422.401,642.105 Q423.380,641.404,423.380,639.879 L423.380,639.879 Q423.380,637.013,419.979,637.013 L419.979,637.013 L416.062,637.013 Q415.794,637.013,415.794,637.199 L415.794,637.199 L415.794,642.579 Q415.794,642.806,415.979,642.806 L415.979,642.806 L419.401,642.806 Z M429.936,651.114 Q429.688,651.114,429.688,650.846 L429.688,650.846 L429.688,636.065 Q429.688,635.920,429.740,635.869 Q429.791,635.817,429.915,635.817 L429.915,635.817 L431.296,635.817 Q431.441,635.817,431.513,635.859 Q431.585,635.900,431.626,636.024 L431.626,636.024 L436.574,648.640 Q436.677,648.846,436.739,648.846 L436.739,648.846 Q436.801,648.846,436.904,648.640 L436.904,648.640 L441.893,636.044 Q441.954,635.817,442.161,635.817 L442.161,635.817 L443.645,635.817 Q443.851,635.817,443.851,636.065 L443.851,636.065 L443.851,650.846 Q443.851,651.114,443.583,651.114 L443.583,651.114 L442.552,651.114 Q442.408,651.114,442.356,651.062 Q442.305,651.011,442.305,650.867 L442.305,650.867 L442.305,638.704 Q442.305,638.621,442.264,638.631 Q442.222,638.642,442.202,638.704 L442.202,638.704 L437.419,650.867 Q437.337,651.114,437.069,651.114 L437.069,651.114 L436.244,651.114 Q436.079,651.114,435.986,651.062 Q435.893,651.011,435.832,650.887 L435.832,650.887 L431.152,638.827 Q431.131,638.724,431.090,638.724 Q431.049,638.724,431.049,638.827 L431.049,638.827 L431.049,650.887 Q431.049,651.011,430.997,651.062 Q430.946,651.114,430.802,651.114 L430.802,651.114 L429.936,651.114 Z M449.603,635.817 L450.716,635.817 Q450.840,635.817,450.881,635.869 Q450.922,635.920,450.922,636.065 L450.922,636.065 L450.922,650.805 Q450.922,650.990,450.860,651.052 Q450.798,651.114,450.613,651.114 L450.613,651.114 L449.664,651.114 Q449.500,651.114,449.438,651.062 Q449.376,651.011,449.376,650.867 L449.376,650.867 L449.376,636.065 Q449.376,635.920,449.427,635.869 Q449.479,635.817,449.603,635.817 L449.603,635.817 Z M466.590,635.817 L467.538,635.817 Q467.662,635.817,467.703,635.869 Q467.744,635.920,467.744,636.044 L467.744,636.044 L467.744,650.887 Q467.744,651.114,467.517,651.114 L467.517,651.114 L466.796,651.114 L466.693,651.114 Q466.486,651.114,466.383,650.970 L466.383,650.970 L458.075,638.807 Q457.972,638.662,457.900,638.683 Q457.828,638.704,457.828,638.827 L457.828,638.827 L457.828,650.887 Q457.828,651.114,457.581,651.114 L457.581,651.114 L456.694,651.114 Q456.550,651.114,456.498,651.062 Q456.447,651.011,456.447,650.867 L456.447,650.867 L456.447,636.065 Q456.447,635.920,456.498,635.869 Q456.550,635.817,456.674,635.817 L456.674,635.817 L457.539,635.817 Q457.684,635.817,457.756,635.848 Q457.828,635.879,457.911,636.003 L457.911,636.003 L466.074,648.001 Q466.177,648.125,466.260,648.125 L466.260,648.125 Q466.301,648.125,466.342,648.073 Q466.383,648.022,466.383,647.939 L466.383,647.939 L466.383,636.044 Q466.383,635.817,466.590,635.817 L466.590,635.817 Z M478.835,651.320 Q476.897,651.320,475.485,650.382 Q474.073,649.444,473.320,647.692 Q472.568,645.939,472.568,643.527 L472.568,643.527 Q472.568,641.054,473.341,639.270 Q474.114,637.487,475.547,636.549 Q476.980,635.611,478.897,635.611 L478.897,635.611 Q480.216,635.611,481.422,636.178 Q482.628,636.745,483.412,637.683 Q484.195,638.621,484.339,639.672 L484.339,639.672 L484.339,639.796 Q484.339,639.920,484.216,639.940 L484.216,639.940 L483.041,640.126 L482.999,640.126 Q482.896,640.126,482.855,639.961 L482.855,639.961 Q482.608,638.642,481.505,637.745 Q480.402,636.848,478.876,636.848 L478.876,636.848 Q476.609,636.848,475.403,638.549 Q474.197,640.250,474.197,643.404 L474.197,643.404 Q474.197,646.702,475.403,648.382 Q476.609,650.063,478.917,650.063 L478.917,650.063 Q480.278,650.063,481.247,649.444 Q482.216,648.826,482.711,647.888 Q483.205,646.950,483.247,645.981 L483.247,645.981 L483.247,644.599 L483.247,644.558 Q483.247,644.393,483.041,644.393 L483.041,644.393 L479.453,644.393 Q479.268,644.393,479.268,644.228 L479.268,644.228 L479.268,643.507 Q479.268,643.342,479.412,643.342 L479.412,643.342 L484.442,643.342 Q484.669,643.342,484.669,643.548 L484.669,643.548 L484.669,650.867 Q484.669,651.114,484.442,651.114 L484.442,651.114 L484.009,651.114 Q483.865,651.114,483.783,651.073 Q483.700,651.031,483.680,650.887 L483.680,650.887 L483.556,648.867 Q483.535,648.764,483.484,648.764 Q483.432,648.764,483.370,648.867 L483.370,648.867 Q482.731,649.959,481.597,650.640 Q480.464,651.320,478.835,651.320 L478.835,651.320 Z M494.132,636.869 L494.132,636.024 Q494.132,635.817,494.338,635.817 L494.338,635.817 L505.223,635.817 Q505.429,635.817,505.429,636.024 L505.429,636.024 L505.429,636.869 Q505.429,637.054,505.223,637.054 L505.223,637.054 L500.955,637.054 Q500.831,637.054,500.790,637.085 Q500.749,637.116,500.749,637.240 L500.749,637.240 L500.749,650.867 Q500.749,651.011,500.697,651.062 Q500.646,651.114,500.522,651.114 L500.522,651.114 L499.409,651.114 Q499.285,651.114,499.234,651.062 Q499.182,651.011,499.182,650.867 L499.182,650.867 L499.182,637.240 Q499.182,637.116,499.141,637.085 Q499.100,637.054,498.976,637.054 L498.976,637.054 L494.338,637.054 Q494.132,637.054,494.132,636.869 L494.132,636.869 Z M518.767,643.795 L511.428,643.795 Q511.345,643.795,511.304,643.847 Q511.263,643.899,511.263,643.960 L511.263,643.960 L511.263,650.867 Q511.263,651.114,510.995,651.114 L510.995,651.114 L509.964,651.114 Q509.717,651.114,509.717,650.867 L509.717,650.867 L509.717,636.065 Q509.717,635.920,509.768,635.869 Q509.820,635.817,509.943,635.817 L509.943,635.817 L511.057,635.817 Q511.180,635.817,511.222,635.869 Q511.263,635.920,511.263,636.065 L511.263,636.065 L511.263,642.311 Q511.263,642.455,511.314,642.497 Q511.366,642.538,511.490,642.538 L511.490,642.538 L518.746,642.538 Q518.952,642.538,518.952,642.332 L518.952,642.332 L518.952,636.044 Q518.952,635.817,519.138,635.817 L519.138,635.817 L520.272,635.817 Q520.395,635.817,520.447,635.869 Q520.498,635.920,520.498,636.065 L520.498,636.065 L520.498,650.867 Q520.498,651.114,520.251,651.114 L520.251,651.114 L519.220,651.114 Q518.952,651.114,518.952,650.867 L518.952,650.867 L518.952,643.981 Q518.952,643.795,518.767,643.795 L518.767,643.795 Z M526.023,636.065 Q526.023,635.920,526.075,635.869 Q526.126,635.817,526.250,635.817 L526.250,635.817 L535.218,635.817 Q535.403,635.817,535.403,636.003 L535.403,636.003 L535.383,636.848 Q535.383,636.972,535.341,637.013 Q535.300,637.054,535.176,637.054 L535.176,637.054 L527.817,637.054 Q527.672,637.054,527.621,637.096 Q527.569,637.137,527.569,637.281 L527.569,637.281 L527.569,642.579 Q527.569,642.703,527.621,642.744 Q527.672,642.785,527.796,642.785 L527.796,642.785 L533.383,642.785 Q533.486,642.785,533.527,642.827 Q533.568,642.868,533.568,642.971 L533.568,642.971 L533.568,643.837 Q533.568,643.940,533.527,643.971 Q533.486,644.002,533.383,644.002 L533.383,644.002 L527.776,644.002 Q527.672,644.002,527.621,644.043 Q527.569,644.084,527.569,644.208 L527.569,644.208 L527.569,649.671 Q527.569,649.795,527.611,649.836 Q527.652,649.877,527.776,649.877 L527.776,649.877 L535.465,649.877 Q535.589,649.877,535.640,649.908 Q535.692,649.939,535.692,650.063 L535.692,650.063 L535.692,650.928 Q535.692,651.114,535.486,651.114 L535.486,651.114 L526.271,651.114 Q526.126,651.114,526.075,651.062 Q526.023,651.011,526.023,650.867 L526.023,650.867 L526.023,636.065 Z M563.749,635.817 Q563.893,635.817,563.955,635.900 Q564.017,635.982,563.976,636.106 L563.976,636.106 L559.709,650.846 Q559.647,651.114,559.317,651.114 L559.317,651.114 L558.307,651.114 Q557.936,651.114,557.874,650.867 L557.874,650.867 L554.390,638.497 Q554.369,638.394,554.338,638.394 Q554.307,638.394,554.287,638.497 L554.287,638.497 L550.741,650.846 Q550.658,651.114,550.349,651.114 L550.349,651.114 L549.318,651.114 Q548.947,651.114,548.886,650.867 L548.886,650.867 L544.701,636.127 Q544.701,636.106,544.690,636.085 Q544.680,636.065,544.701,636.044 L544.701,636.044 Q544.701,635.817,544.948,635.817 L544.948,635.817 L545.938,635.817 Q546.082,635.817,546.144,635.859 Q546.206,635.900,546.247,636.024 L546.247,636.024 L549.793,648.723 Q549.854,648.929,549.916,648.929 L549.916,648.929 Q549.978,648.929,550.040,648.702 L550.040,648.702 L553.648,636.003 Q553.751,635.817,553.978,635.817 L553.978,635.817 L554.885,635.817 Q555.029,635.817,555.091,635.859 Q555.153,635.900,555.194,636.024 L555.194,636.024 L558.760,648.743 Q558.822,648.929,558.884,648.929 L558.884,648.929 Q558.946,648.929,559.008,648.743 L559.008,648.743 L562.615,636.003 Q562.657,635.817,562.925,635.817 L562.925,635.817 L563.749,635.817 Z M574.077,651.320 Q571.047,651.320,569.356,649.300 Q567.666,647.279,567.666,643.548 L567.666,643.548 Q567.666,641.033,568.439,639.250 Q569.212,637.467,570.666,636.539 Q572.119,635.611,574.098,635.611 L574.098,635.611 Q576.077,635.611,577.510,636.529 Q578.943,637.446,579.705,639.219 Q580.468,640.992,580.468,643.507 L580.468,643.507 Q580.468,647.259,578.778,649.289 Q577.087,651.320,574.077,651.320 L574.077,651.320 Z M574.119,650.063 Q576.489,650.063,577.664,648.455 Q578.839,646.847,578.839,643.507 L578.839,643.507 Q578.839,636.848,574.098,636.848 L574.098,636.848 Q569.295,636.848,569.295,643.507 L569.295,643.507 Q569.295,650.063,574.119,650.063 L574.119,650.063 Z M595.868,650.763 Q595.888,650.805,595.888,650.867 L595.888,650.867 Q595.888,650.970,595.826,651.042 Q595.765,651.114,595.662,651.114 L595.662,651.114 L594.528,651.114 Q594.342,651.114,594.239,650.887 L594.239,650.887 L591.456,644.228 Q591.415,644.105,591.312,644.053 Q591.209,644.002,591.002,644.002 L591.002,644.002 L587.106,644.002 Q586.859,644.002,586.859,644.228 L586.859,644.228 L586.859,650.825 Q586.859,650.990,586.797,651.052 Q586.735,651.114,586.591,651.114 L586.591,651.114 L585.581,651.114 Q585.313,651.114,585.313,650.867 L585.313,650.867 L585.313,636.065 Q585.313,635.920,585.364,635.869 Q585.416,635.817,585.539,635.817 L585.539,635.817 L591.106,635.817 Q593.476,635.817,594.765,636.817 Q596.053,637.817,596.053,639.714 L596.053,639.714 Q596.053,641.384,595.167,642.352 Q594.280,643.321,593.002,643.692 L593.002,643.692 Q592.878,643.713,592.920,643.878 L592.920,643.878 L595.868,650.763 Z M590.466,642.806 Q592.487,642.806,593.466,642.105 Q594.445,641.404,594.445,639.879 L594.445,639.879 Q594.445,637.013,591.044,637.013 L591.044,637.013 L587.127,637.013 Q586.859,637.013,586.859,637.199 L586.859,637.199 L586.859,642.579 Q586.859,642.806,587.044,642.806 L587.044,642.806 L590.466,642.806 Z M600.753,636.065 Q600.753,635.920,600.805,635.869 Q600.857,635.817,600.980,635.817 L600.980,635.817 L602.093,635.817 Q602.217,635.817,602.258,635.869 Q602.300,635.920,602.300,636.065 L602.300,636.065 L602.300,649.671 Q602.300,649.795,602.341,649.836 Q602.382,649.877,602.506,649.877 L602.506,649.877 L609.783,649.877 Q609.907,649.877,609.948,649.908 Q609.989,649.939,609.989,650.063 L609.989,650.063 L609.989,650.928 Q609.989,651.114,609.783,651.114 L609.783,651.114 L601.001,651.114 Q600.753,651.114,600.753,650.867 L600.753,650.867 L600.753,636.065 Z M614.524,635.817 L617.411,635.838 Q621.595,635.879,623.513,637.724 Q625.430,639.569,625.430,643.363 L625.430,643.363 Q625.430,647.300,623.389,649.207 Q621.348,651.114,617.163,651.114 L617.163,651.114 L614.524,651.114 Q614.277,651.114,614.277,650.846 L614.277,650.846 L614.277,636.044 Q614.277,635.817,614.524,635.817 L614.524,635.817 Z M615.988,637.054 Q615.823,637.054,615.823,637.343 L615.823,637.343 L615.823,649.691 Q615.823,649.898,616.071,649.898 L616.071,649.898 L616.957,649.898 Q619.431,649.898,620.915,649.259 Q622.399,648.619,623.100,647.207 Q623.801,645.795,623.801,643.424 L623.801,643.424 Q623.801,641.012,623.111,639.652 Q622.420,638.291,621.018,637.704 Q619.616,637.116,617.266,637.054 L617.266,637.054 L615.988,637.054 Z" fill="#000" id="def-be357855-fd4d-42ac-b3e5-ca123f2e07bd"></path>
		<mask id="mask-587d1cb9-2248-4169-a970-c7755542e97c" x="-384.000" y="-384.000" width="1536.000" height="1536.000" stroke-width="0">
			<rect x="116.000" y="116.000" width="768.000" height="768.000" fill="#fff"></rect>
			<use xlink:href="#def-8ffa35eb-3f19-43ff-b9fe-c0659ec7e8af"></use>
			<use xlink:href="#def-615eb3de-5220-41ea-9642-c50970156407"></use>
			<use xlink:href="#def-be357855-fd4d-42ac-b3e5-ca123f2e07bd"></use>
		</mask>
		<g mask="url(#mask-587d1cb9-2248-4169-a970-c7755542e97c)" id="def-897d86f3-78cd-4773-be5f-d2737aa4618e">
			<use xlink:href="#def-f2d9e0ac-398e-4fab-8830-667633027052" stroke-width="0.000"></use>
		</g>
		<mask id="mask-9f0f9067-53ce-4f3b-b6fe-470b2b6d25eb" x="-384.000" y="-384.000" width="1536.000" height="1536.000" stroke-width="0">
			<rect x="116.000" y="116.000" width="768.000" height="768.000" fill="#000"></rect>
			<use xlink:href="#def-897d86f3-78cd-4773-be5f-d2737aa4618e" fill="#fff" stroke="#fff"></use>
		</mask>
	</defs>
	<g mask="url(#mask-9f0f9067-53ce-4f3b-b6fe-470b2b6d25eb)">
		<rect x="116.000" y="116.000" width="768.000" height="768.000" fill="#000"></rect>
	</g>
</svg>
