<?xml version="1.0" encoding="UTF-8" standalone="no"?>
<svg version="1.1" preserveAspectRatio="xMidYMid meet" xmlns="http://www.w3.org/2000/svg" xmlns:xlink="http://www.w3.org/1999/xlink" viewBox="0 0 1000 1000" width="1000" height="1000">
	<defs>
		<path d="M212.744,406.665 C236.255,334.304,423.915,197.961,500.000,197.961 S763.745,334.304,787.256,406.665 S739.088,699.633,677.534,744.355 S384.020,789.076,322.466,744.355 S189.233,479.026,212.744,406.665 Z" stroke-linecap="round" stroke-linejoin="round" stroke-miterlimit="25" id="def-935c3b76-47d2-431f-a48b-0edcb3c5c336"></path>
		<g transform="matrix(3.381, 0.000, 0.000, 3.381, 346.478, 350.821)" fill="#000" stroke="none" stroke-width="1" id="def-8622f5b1-2e76-4a54-959b-3c7afce711a3">
			<g transform="translate(-4.587249999999997, -5.871999999999986)">
				<path d=" M94.237,11.583 l-2.376 -2.376 c0,0,0 -0.001 -0.001 -0.001 c-0.001,0 -0.001 -0.001 -0.002 -0.001 l-2.375 -2.376 c-0.598 -0.597 -1.565 -0.597 -2.162,0 c-0.598,0.597 -0.598,1.564,0,2.162 l1.297,1.297 L75.985,22.918 c-0.783 -0.428 -1.665 -0.657 -2.583 -0.657 c-0.027,0 -0.055,0.004 -0.081,0.004 c0.02 -1.409 -0.504 -2.826 -1.576 -3.899 c-1.02 -1.021 -2.376 -1.582 -3.818 -1.582 s-2.798,0.561 -3.819,1.582 l-0.982,0.983 v-1.39 c0 -2.978 -2.422 -5.401 -5.401 -5.401 c-1.518,0 -2.89,0.632 -3.871,1.645 c-0.981 -1.012 -2.354 -1.645 -3.873 -1.645 c-1.519,0 -2.89,0.632 -3.872,1.645 c-0.982 -1.012 -2.354 -1.645 -3.873 -1.645 c-2.978,0 -5.4,2.423 -5.4,5.401 v1.389 l-0.982 -0.982 c-1.021 -1.02 -2.376 -1.582 -3.82 -1.582 c-1.442,0 -2.798,0.562 -3.818,1.582 c-1.02,1.02 -1.583,2.377 -1.583,3.819 c0,0.027,0.003,0.053,0.004,0.08 c-0.026,0 -0.053 -0.004 -0.079 -0.004 c-0.962,0 -1.883,0.255 -2.695,0.724 L11.155,10.277 l1.297 -1.296 c0.597 -0.597,0.597 -1.565,0 -2.162 c-0.597 -0.596 -1.565 -0.596 -2.162,0 L7.999,9.11 C7.967,9.137,7.933,9.159,7.904,9.188 C7.875,9.217,7.853,9.251,7.827,9.283 l-2.292,2.292 c-0.597,0.597 -0.597,1.565,0,2.162 c0.298,0.299,0.689,0.448,1.081,0.448 c0.391,0,0.782 -0.149,1.08 -0.448 l1.298 -1.297 l12.759,12.76 c-0.387,0.753 -0.595,1.592 -0.595,2.464 c0,0.027,0.003,0.055,0.004,0.082 c-1.41 -0.02 -2.826,0.502 -3.898,1.575 c-2.106,2.106 -2.106,5.532,0,7.639 l0.982,0.982 h-1.389 c-2.979,0 -5.401,2.423 -5.401,5.401 c0,1.519,0.632,2.89,1.644,3.873 c-1.012,0.982 -1.644,2.353 -1.644,3.873 c0,1.518,0.632,2.89,1.644,3.871 c-1.012,0.981 -1.644,2.354 -1.644,3.873 c0,2.978,2.422,5.399,5.401,5.399 h1.389 l-0.983,0.983 c-1.02,1.02 -1.582,2.376 -1.582,3.819 c0,1.442,0.562,2.799,1.582,3.817 c1.02,1.021,2.377,1.583,3.819,1.583 c0.028,0,0.054 -0.004,0.082 -0.005 c-0.013,0.916,0.204,1.835,0.653,2.661 l-13.93,13.93 c-0.597,0.596 -0.597,1.564,0,2.161 c0.298,0.299,0.689,0.447,1.081,0.447 s0.782 -0.148,1.08 -0.447 l13.929 -13.928 c0.783,0.428,1.665,0.656,2.582,0.656 c0,0,0,0,0,0 c0.027,0,0.054 -0.003,0.082 -0.003 c-0.021,1.409,0.502,2.825,1.575,3.897 c1.021,1.021,2.377,1.582,3.819,1.582 l0,0 c1.443,0,2.799 -0.562,3.819 -1.582 l0.982 -0.982 v1.39 c0,2.979,2.423,5.4,5.4,5.4 c1.519,0,2.89 -0.633,3.873 -1.645 c0.982,1.012,2.354,1.645,3.872,1.645 c1.519,0,2.891 -0.633,3.873 -1.645 c0.981,1.012,2.354,1.645,3.871,1.645 c2.979,0,5.401 -2.423,5.401 -5.4 v-1.39 l0.983,0.982 c1.021,1.021,2.377,1.583,3.818,1.582 c1.442,0,2.799 -0.562,3.818 -1.582 c1.021 -1.02,1.583 -2.377,1.583 -3.818 c0 -0.027 -0.004 -0.053 -0.004 -0.079 c0.026,0,0.053,0.003,0.079,0.003 c0.873,0,1.711 -0.208,2.464 -0.595 L89.734,93.18 c0.298,0.299,0.689,0.448,1.08,0.448 c0.392,0,0.782 -0.149,1.081 -0.447 c0.597 -0.598,0.597 -1.565,0 -2.162 L78.079,77.203 c0.471 -0.813,0.724 -1.733,0.724 -2.695 c0 -0.027 -0.003 -0.055 -0.003 -0.082 c0.026,0.001,0.053,0.004,0.08,0.004 c1.381,0,2.765 -0.526,3.818 -1.58 c2.105 -2.105,2.105 -5.531,0 -7.637 l-0.982 -0.983 h1.389 c2.979,0,5.401 -2.422,5.401 -5.399 c0 -1.52 -0.633 -2.892 -1.645 -3.873 c1.012 -0.981,1.645 -2.354,1.645 -3.871 c0 -1.519 -0.633 -2.891 -1.645 -3.873 c1.012 -0.982,1.645 -2.354,1.645 -3.873 c0 -2.978 -2.424 -5.401 -5.401 -5.401 h-1.389 l0.981 -0.982 c2.106 -2.106,2.106 -5.532,0 -7.638 c-1.02 -1.02 -2.376 -1.582 -3.818 -1.582 c-0.027,0 -0.055,0.003 -0.082,0.004 c0.014 -0.916 -0.204 -1.833 -0.652 -2.659 l12.635 -12.635 l1.298,1.297 c0.298,0.298,0.688,0.448,1.081,0.448 c0.391,0,0.781 -0.15,1.079 -0.448 C94.836,13.148,94.836,12.18,94.237,11.583 z M57.724,15.617 c1.293,0,2.345,1.051,2.345,2.344 v4.447 l-4.688,4.688 V17.96 C55.381,16.668,56.433,15.617,57.724,15.617 z M49.98,15.617 c1.292,0,2.344,1.051,2.344,2.344 v12.191 l-4.688,4.688 V17.96 C47.636,16.668,48.688,15.617,49.98,15.617 z M39.893,17.96 c0 -1.292,1.051 -2.344,2.343 -2.344 c1.292,0,2.344,1.051,2.344,2.344 v19.936 l-4.687,4.688 V17.96 z M29.69,22.186 c0 -0.626,0.244 -1.214,0.687 -1.657 c0.442 -0.443,1.031 -0.686,1.656 -0.686 c0.626,0,1.215,0.244,1.658,0.687 l3.144,3.144 v6.629 l-6.458 -6.458 C29.934,23.401,29.69,22.813,29.69,22.186 z M24.213,27.663 c0 -0.626,0.245 -1.215,0.687 -1.658 c0.442 -0.442,1.031 -0.687,1.657 -0.686 c0.626,0,1.215,0.244,1.658,0.686 l8.353,8.354 c0.082,0.082,0.172,0.15,0.267,0.209 v3.372 h-3.314 l-8.62 -8.62 C24.458,28.877,24.213,28.289,24.213,27.663 z M19.425,34.796 c-0.914 -0.914 -0.915 -2.401,0 -3.315 c0.914 -0.914,2.4 -0.914,3.315,0 l6.458,6.458 h-6.629 L19.425,34.796 z M14.511,43.341 c0 -1.292,1.052 -2.344,2.345 -2.344 h19.979 v4.643 l-0.044,0.044 H16.856 C15.563,45.685,14.511,44.633,14.511,43.341 z M14.511,51.086 c0 -1.293,1.052 -2.345,2.345 -2.345 h16.878 l-4.688,4.687 h-12.19 C15.563,53.428,14.511,52.377,14.511,51.086 z M16.856,61.174 c-1.293,0 -2.345 -1.052 -2.345 -2.344 c0 -1.293,1.052 -2.345,2.345 -2.345 h9.133 l-4.688,4.688 H16.856 z M21.081,71.375 c-0.626,0 -1.215 -0.243 -1.657 -0.686 c-0.914 -0.914 -0.914 -2.401,0 -3.315 l20.02 -20.02 c0.001 -0.001,0.001 -0.001,0.001 -0.001 L66.27,20.529 c0.442 -0.443,1.031 -0.687,1.657 -0.687 s1.214,0.244,1.657,0.687 c0.914,0.914,0.914,2.401,0,3.315 L22.738,70.689 C22.295,71.132,21.708,71.375,21.081,71.375 z M42.235,86.554 c-1.292,0 -2.343 -1.051 -2.343 -2.344 v-4.447 l4.687 -4.688 v4.517 v4.618 C44.579,85.503,43.528,86.554,42.235,86.554 z M49.98,86.554 c-1.292,0 -2.344 -1.051 -2.344 -2.344 v-4.618 v-7.573 l4.688 -4.687 v12.26 v4.618 C52.324,85.503,51.272,86.554,49.98,86.554 z M60.068,84.21 c0,1.293 -1.052,2.344 -2.345,2.344 c-1.291,0 -2.343 -1.051 -2.343 -2.344 v-4.618 V64.274 l4.688 -4.688 V84.21 z M69.584,81.641 c-0.443,0.443 -1.031,0.688 -1.657,0.688 s-1.215 -0.244 -1.657 -0.688 l-2.976 -2.974 l-0.169,0.169 v-6.968 l3.193,3.192 c0,0,0,0,0,0.001 l3.266,3.266 c0.006,0.006,0.012,0.012,0.018,0.018 c0.432,0.439,0.669,1.021,0.669,1.639 C70.271,80.61,70.027,81.198,69.584,81.641 z M75.748,74.507 c0,0.627 -0.245,1.216 -0.688,1.658 c-0.443,0.442 -1.031,0.687 -1.657,0.687 c-0.626,0.001 -1.215 -0.244 -1.656 -0.687 c-0.008 -0.007 -0.016 -0.014 -0.022 -0.021 L68.48,72.9 c0,0 -0.001 -0.001 -0.001 -0.002 l-5.354 -5.354 v-3.315 h3.315 l8.62,8.621 C75.503,73.294,75.748,73.882,75.748,74.507 z M80.536,67.374 c0.914,0.914,0.914,2.401,0,3.315 c-0.913,0.913 -2.4,0.913 -3.314,0 l-1.633 -1.633 l-1.632 -1.633 l0,0 l-3.194 -3.194 h6.63 L80.536,67.374 z M85.448,58.83 c0,1.292 -1.051,2.344 -2.344,2.344 H63.125 v-4.645 l0.044 -0.044 h15.317 h4.618 C84.397,56.485,85.448,57.537,85.448,58.83 z M85.448,51.086 c0,1.291 -1.051,2.342 -2.344,2.342 h-4.618 h-12.26 l4.688 -4.687 h7.572 h4.618 C84.397,48.741,85.448,49.793,85.448,51.086 z M83.104,40.997 c1.293,0,2.344,1.052,2.344,2.344 s-1.051,2.344 -2.344,2.344 h-4.618 H73.97 l4.688 -4.688 H83.104 z M78.879,30.795 c0.627,0,1.214,0.244,1.657,0.687 c0.442,0.443,0.687,1.031,0.687,1.657 s-0.244,1.215 -0.687,1.658 L52.772,62.56 c-0.001,0 -0.001,0.001 -0.001,0.001 l-19.081,19.08 c-0.443,0.443 -1.032,0.688 -1.658,0.688 s-1.215 -0.244 -1.657 -0.688 c-0.914 -0.913 -0.915 -2.4,0 -3.313 l46.846 -46.846 C77.664,31.038,78.253,30.795,78.879,30.795 z M75.061,29.319 L28.214,76.165 c-0.442,0.442 -1.031,0.687 -1.657,0.687 s-1.214 -0.244 -1.657 -0.687 c-0.913 -0.913 -0.914 -2.4 -0.001 -3.313 c0 -0.001,0 -0.001,0.001 -0.002 l46.846 -46.845 c0.441 -0.442,1.031 -0.687,1.656 -0.687 c0.627,0,1.215,0.244,1.658,0.687 C75.973,26.918,75.974,28.405,75.061,29.319 L75.061,29.319 z"></path>
			</g>
		</g>
		<mask id="mask-eb0c14a4-5363-472f-aa10-ef053edada14" x="-384.000" y="-384.000" width="1536.000" height="1536.000" stroke-width="0">
			<rect x="116.000" y="116.000" width="768.000" height="768.000" fill="#fff"></rect>
			<use xlink:href="#def-8622f5b1-2e76-4a54-959b-3c7afce711a3"></use>
		</mask>
		<g mask="url(#mask-eb0c14a4-5363-472f-aa10-ef053edada14)" id="def-da146c82-043c-45a3-bdd9-3f1583517f71">
			<use xlink:href="#def-935c3b76-47d2-431f-a48b-0edcb3c5c336" stroke-width="0.000"></use>
		</g>
		<radialGradient id="gradient-5cdb6e59-ad03-47e6-89d4-a944031ec18a" gradientUnits="objectBoundingBox" gradientTransform="translate(0.5, 0.5) scale(1.000, 1) translate(-0.5, -0.5)" cx="0.500" cy="-0.207" r="1.207">
			<stop offset="0.000" stop-color="#ff9ba7" stop-opacity="1"></stop>
			<stop offset="0.167" stop-color="#ff92a8" stop-opacity="1"></stop>
			<stop offset="0.333" stop-color="#ff88a9" stop-opacity="1"></stop>
			<stop offset="0.500" stop-color="#ff7eab" stop-opacity="1"></stop>
			<stop offset="0.667" stop-color="#f774ae" stop-opacity="1"></stop>
			<stop offset="0.833" stop-color="#ef6cb1" stop-opacity="1"></stop>
			<stop offset="1.000" stop-color="#e566b6" stop-opacity="1"></stop>
		</radialGradient>
		<mask id="mask-255ccb2f-0b2d-4ac9-9ec0-c9f043221a6b" x="-384.000" y="-384.000" width="1536.000" height="1536.000" stroke-width="0">
			<rect x="116.000" y="116.000" width="768.000" height="768.000" fill="#000"></rect>
			<use xlink:href="#def-da146c82-043c-45a3-bdd9-3f1583517f71" fill="#fff" stroke="#fff"></use>
		</mask>
	</defs>
	<g mask="url(#mask-255ccb2f-0b2d-4ac9-9ec0-c9f043221a6b)">
		<rect x="116.000" y="116.000" width="768.000" height="768.000" fill="url(#gradient-5cdb6e59-ad03-47e6-89d4-a944031ec18a)"></rect>
	</g>
</svg>
